<svg xmlns="http://www.w3.org/2000/svg" xmlns:xlink="http://www.w3.org/1999/xlink" width="225" height="225" viewBox="0 0 225 225"><defs><linearGradient id="a" x1="0.5" x2="0.5" y2="1" gradientUnits="objectBoundingBox"><stop offset="0" stop-color="#e5a24b"/><stop offset="1" stop-color="#da832c"/></linearGradient></defs><g transform="translate(-11655 -4709.382)"><path d="M112.5,0A112.5,112.5,0,1,1,0,112.5,112.5,112.5,0,0,1,112.5,0Z" transform="translate(11655 4709.382)" fill="url(#a)"/><g transform="translate(11699.61 4755.037)"><g transform="translate(0 0)"><path d="M0,19.3H58.456L77.418,0H16.975Z" transform="translate(56.511 32.381) rotate(90)" fill="#c2c2c2"/><path d="M122.57,19.3H36.884L9.09,0h88.6Z" transform="translate(5.481 90.604)" fill="#c2c2c2"/><path d="M0,19.3H68.536L90.767,0H19.9Z" transform="translate(88.249 22.088) rotate(90)" fill="#c2c2c2"/><path d="M0,33.36H104.1l14.107-16.944L34.159,0Z" transform="translate(134.047 4.074) rotate(90)" fill="#c2c2c2"/><path d="M0,19.551H101L127.345,0,18.418.251Z" transform="translate(28.456 0) rotate(90)" fill="#c2c2c2"/><g transform="translate(0 0.095)"><path d="M9.1,107.543v-9h99.943v9Zm-9.1-.1V0H9V107.439Z" transform="translate(0 0)" fill="#ff4f00"/><rect width="19.827" height="58.58" transform="translate(17.574 32.098)" fill="#b800a6"/><rect width="19.376" height="68.493" transform="translate(49.568 22.184)" fill="#00c59d"/><g transform="translate(81.111 4.16)" stroke="#707070" stroke-width="1"><rect width="19.376" height="86.518" stroke="none"/><rect x="0.5" y="0.5" width="18.376" height="85.518" fill="none"/></g></g><path d="M135.022,117.651l-104.232.015L0,90.972l109.114.314V0l25.963,22.951-.033,94.663.033.037h-.033v.017Z" transform="translate(0.214 16.58)" fill="#c2c2c2"/></g></g></g></svg>